# xmcd
#
# Track frame offsets:
#  150
#  24561
#  42060
#  61360
#  82197
#  97817
#  114203
#  131560
#  149633
#  163362
#  181179
#  206264
#
# Disc length: 3052 seconds
#
# Revision: 2
# Processed by: cddbd v1.5.1PL0 Copyright (c) Steve Scherf et al.
# Submitted via: AltoMP3_Maker 3.0
#
DISCID=a00bea0c
DTITLE=MARINELLA - AMMOS EITANE
DYEAR=1900
DGENRE=
TTITLE0=MESHMERI
TTITLE1=GYALINH KARDIA
TTITLE2=THAVMATA
TTITLE3=YPARXOYN DROMOI
TTITLE4=AX NA XYPNOYSA
TTITLE5=FLOGA
TTITLE6=SKALA
TTITLE7=STA XERIA THS BRADIAS
TTITLE8=NA LEEI TO ONOMA SOY
TTITLE9=TO LOYLOYDI
TTITLE10=MESOTOIXIA
TTITLE11=Data
EXTD=
EXTT0=
EXTT1=
EXTT2=
EXTT3=
EXTT4=
EXTT5=
EXTT6=
EXTT7=
EXTT8=
EXTT9=
EXTT10=
EXTT11=
PLAYORDER=
